# xmcd CD database file
#
# Track frame offsets:
#	150
#	20242
#	40025
#	54625
#	70567
#	96457
#	129132
#	145830
#	170662
#	189417
#	211005
#	223182
#	240797
#
# Disc length: 3528 seconds
#
# Revision: 0
# Processed by: cddbd v1.4PL0 Copyright (c) Steve Scherf et al.
# Submitted via: CDex 1.50
#
DISCID=b30dc60d
DTITLE=Various Artist - Salsa de Coleccion, Vol. 2
DYEAR=1997
DGENRE=Salsa
TTITLE0=Pachanga Mix
TTITLE1=Que Se Mueva
TTITLE2=Mi Dulce Amor
TTITLE3=Sueña Contigo
TTITLE4=Juana Blandon
TTITLE5=Homenaje a Celia
TTITLE6=Guede Zaina
TTITLE7=Perfume De Paris
TTITLE8=Se Morira el Amor
TTITLE9=Cita
TTITLE10=Tremendo Boogaloo
TTITLE11=Regalame Una Noche
TTITLE12=Esperando
EXTD=YEAR: 1997
EXTT0=
EXTT1=
EXTT2=
EXTT3=
EXTT4=
EXTT5=
EXTT6=
EXTT7=
EXTT8=
EXTT9=
EXTT10=
EXTT11=
EXTT12=
PLAYORDER=
